# Blender 4.2.2 LTS
# www.blender.org
mtllib untitled.mtl
o entity0_brush0
v -32.000000 -16.000002 -31.999998
v -32.000000 -15.999995 64.000000
v -32.000000 80.000008 63.999992
v -32.000000 80.000000 -32.000008
v 76.800003 80.000008 63.999992
v 76.800003 -15.999995 64.000000
v 0.000000 -16.000002 -31.999998
v 0.000000 80.000000 -32.000008
vn -1.0000 -0.0000 -0.0000
vn -0.0000 -0.0000 1.0000
vn -0.0000 -1.0000 -0.0000
vn -0.0000 1.0000 -0.0000
vn -0.0000 -0.0000 -1.0000
vn 0.7809 -0.0000 -0.6247
vt 32.000000 -16.000000
vt -64.000000 -16.000000
vt -64.000000 80.000000
vt 32.000000 80.000000
vt 76.800003 80.000000
vt -32.000000 80.000000
vt -32.000000 -16.000000
vt 76.800003 -16.000000
vt 76.800003 -64.000000
vt -32.000000 -64.000000
vt -32.000000 32.000000
vt 0.000000 32.000000
vt 0.000000 -16.000000
vt 0.000000 80.000000
s 0
usemtl __TB_empty
f 1/1/1 2/2/1 3/3/1 4/4/1
f 5/5/2 3/6/2 2/7/2 6/8/2
f 6/9/3 2/10/3 1/11/3 7/12/3
f 8/12/4 4/11/4 3/10/4 5/9/4
f 7/13/5 1/7/5 4/6/5 8/14/5
f 8/4/6 5/3/6 6/2/6 7/1/6
o entity0_brush1
v -48.000000 15.999994 -80.000000
v -48.000000 15.999997 -32.000000
v -48.000000 47.999996 -32.000004
v -48.000000 47.999992 -80.000000
v 0.000000 47.999996 -32.000004
v 0.000000 15.999997 -32.000000
v 0.000000 15.999994 -80.000000
v 0.000000 47.999992 -80.000000
vn -1.0000 -0.0000 -0.0000
vn -0.0000 -0.0000 1.0000
vn -0.0000 -1.0000 -0.0000
vn -0.0000 1.0000 -0.0000
vn -0.0000 -0.0000 -1.0000
vn 1.0000 -0.0000 -0.0000
vt 80.000000 8.000000
vt 32.000000 8.000000
vt 32.000000 24.000000
vt 80.000000 24.000000
vt 0.000000 24.000000
vt -48.000000 24.000000
vt -48.000000 8.000000
vt 0.000000 8.000000
vt 0.000000 32.000000
vt -48.000000 32.000000
vt -48.000000 80.000000
vt 0.000000 80.000000
s 0
usemtl __TB_empty
f 9/15/7 10/16/7 11/17/7 12/18/7
f 13/19/8 11/20/8 10/21/8 14/22/8
f 14/23/9 10/24/9 9/25/9 15/26/9
f 16/26/10 12/25/10 11/24/10 13/23/10
f 15/22/11 9/21/11 12/20/11 16/19/11
f 16/18/12 13/17/12 14/16/12 15/15/12
o entity0_brush2
v -80.000000 64.000000 -16.000006
v -80.000000 64.000000 31.999994
v -80.000000 80.000000 31.999994
v -80.000000 80.000000 -16.000006
v -32.000000 80.000000 31.999994
v -32.000000 64.000000 31.999994
v -32.000000 64.000000 -16.000006
v -32.000000 80.000000 -16.000006
vn -1.0000 -0.0000 -0.0000
vn -0.0000 -0.0000 1.0000
vn -0.0000 -1.0000 -0.0000
vn -0.0000 1.0000 -0.0000
vn -0.0000 -0.0000 -1.0000
vn 1.0000 -0.0000 -0.0000
vt 16.000000 64.000000
vt -32.000000 64.000000
vt -32.000000 80.000000
vt 16.000000 80.000000
vt -80.000000 80.000000
vt -80.000000 64.000000
vt -32.000000 -32.000000
vt -80.000000 -32.000000
vt -80.000000 16.000000
vt -32.000000 16.000000
s 0
usemtl __TB_empty
f 17/27/13 18/28/13 19/29/13 20/30/13
f 21/29/14 19/31/14 18/32/14 22/28/14
f 22/33/15 18/34/15 17/35/15 23/36/15
f 24/36/16 20/35/16 19/34/16 21/33/16
f 23/28/17 17/32/17 20/31/17 24/29/17
f 24/30/18 21/29/18 22/28/18 23/27/18
o entity0_brush3
v -16.000000 80.000000 15.999994
v -16.000000 80.000000 47.999992
v -16.000000 176.000000 47.999989
v -16.000000 176.000000 15.999987
v 32.000000 176.000000 47.999989
v 32.000000 80.000000 47.999992
v 32.000000 80.000000 15.999994
v 32.000000 176.000000 15.999987
vn -1.0000 -0.0000 -0.0000
vn -0.0000 -0.0000 1.0000
vn -0.0000 -1.0000 -0.0000
vn -0.0000 1.0000 -0.0000
vn -0.0000 -0.0000 -1.0000
vn 1.0000 -0.0000 -0.0000
vt -16.000000 1.923343
vt -48.000000 1.923343
vt -48.000000 3.363343
vt -16.000000 3.363343
vt 32.000000 5.551652
vt -16.000000 5.551652
vt -16.000000 2.671653
vt 32.000000 2.671653
vt 32.000000 -48.000000
vt -16.000000 -48.000000
vt -16.000000 -16.000000
vt 32.000000 -16.000000
vt 32.000000 3.195702
vt -16.000000 3.195702
vt -16.000000 6.075702
vt 32.000000 6.075702
vt -16.000000 3.599444
vt -48.000000 3.599444
vt -48.000000 2.159444
vt -16.000000 2.159444
s 0
usemtl __TB_empty
f 25/37/19 26/38/19 27/39/19 28/40/19
f 29/41/20 27/42/20 26/43/20 30/44/20
f 30/45/21 26/46/21 25/47/21 31/48/21
 f 32/48/22 28/47/22 27/46/22 29/45/22
f 31/49/23 25/50/23 28/51/23 32/52/23
f 32/53/24 29/54/24 30/55/24 31/56/24
