# Blender 4.2.2 LTS
# www.blender.org
mtllib _E1M1.mtl
o entity0_brush632
v 1392.000000 -544.000183 -2496.000000
v 1392.000000 -544.000183 -2432.000000
v 1392.000000 159.999817 -2432.000000
v 1392.000000 159.999817 -2496.000000
v 1408.000000 159.999817 -2432.000000
v 1408.000000 -544.000183 -2432.000000
v 1408.000000 -544.000183 -2496.000000
v 1408.000000 159.999817 -2496.000000
vn -1.0000 -0.0000 -0.0000
vn -0.0000 -0.0000 1.0000
vn -0.0000 -1.0000 -0.0000
vn -0.0000 1.0000 -0.0000
vn -0.0000 -0.0000 -1.0000
vn 1.0000 -0.0000 -0.0000
vt 17.000000 -78.000000
vt 17.000000 -76.000000
vt -5.000000 -76.000000
vt -5.000000 -78.000000
vt -5.000000 -44.000000
vt -5.000000 -43.500000
vt 17.000000 -43.500000
vt 17.000000 -44.000000
vt -76.000000 -44.000000
vt -76.000000 -43.500000
vt -78.000000 -43.500000
vt -78.000000 -44.000000
s 0
usemtl TWALL2_6
f 1/1/1 2/2/1 3/3/1 4/4/1
f 5/5/2 3/6/2 2/7/2 6/8/2
f 6/9/3 2/10/3 1/11/3 7/12/3
f 8/12/4 4/11/4 3/10/4 5/9/4
f 7/8/5 1/7/5 4/6/5 8/5/5
f 8/4/6 5/3/6 6/2/6 7/1/6
o entity0_brush639
v 1280.000000 -544.000183 -2624.000000
v 1280.000000 -544.000183 -2608.000000
v 1280.000000 159.999802 -2608.000000
v 1280.000000 159.999802 -2624.000000
v 1344.000000 159.999802 -2608.000000
v 1344.000000 -544.000183 -2608.000000
v 1344.000000 -544.000183 -2624.000000
v 1344.000000 159.999802 -2624.000000
vn -1.0000 -0.0000 -0.0000
vn -0.0000 -0.0000 1.0000
vn -0.0000 -1.0000 -0.0000
vn -0.0000 1.0000 -0.0000
vn -0.0000 -0.0000 -1.0000
vn 1.0000 -0.0000 -0.0000
vt 17.000000 -82.000000
vt 17.000000 -81.500000
vt -5.000000 -81.500000
vt -5.000000 -82.000000
vt -5.000000 -42.000000
vt -5.000000 -40.000000
vt 17.000000 -40.000000
vt 17.000000 -42.000000
vt -81.500000 -42.000000
vt -81.500000 -40.000000
vt -82.000000 -40.000000
vt -82.000000 -42.000000
s 0
usemtl TWALL2_6
f 9/13/7 10/14/7 11/15/7 12/16/7
f 13/17/8 11/18/8 10/19/8 14/20/8
f 14/21/9 10/22/9 9/23/9 15/24/9
f 16/24/10 12/23/10 11/22/10 13/21/10
f 15/20/11 9/19/11 12/18/11 16/17/11
f 16/16/12 13/15/12 14/14/12 15/13/12
o entity0_brush640
v 1088.000000 -544.000183 -2624.000000
v 1088.000000 -544.000183 -2608.000000
v 1088.000000 159.999802 -2608.000000
v 1088.000000 159.999802 -2624.000000
v 1152.000000 159.999802 -2608.000000
v 1152.000000 -544.000183 -2608.000000
v 1152.000000 -544.000183 -2624.000000
v 1152.000000 159.999802 -2624.000000
vn -1.0000 -0.0000 -0.0000
vn -0.0000 -0.0000 1.0000
vn -0.0000 -1.0000 -0.0000
vn -0.0000 1.0000 -0.0000
vn -0.0000 -0.0000 -1.0000
vn 1.0000 -0.0000 -0.0000
vt 17.000000 -82.000000
vt 17.000000 -81.500000
vt -5.000000 -81.500000
vt -5.000000 -82.000000
vt -5.000000 -36.000000
vt -5.000000 -34.000000
vt 17.000000 -34.000000
vt 17.000000 -36.000000
vt -81.500000 -36.000000
vt -81.500000 -34.000000
vt -82.000000 -34.000000
vt -82.000000 -36.000000
s 0
usemtl TWALL2_6
f 17/25/13 18/26/13 19/27/13 20/28/13
f 21/29/14 19/30/14 18/31/14 22/32/14
f 22/33/15 18/34/15 17/35/15 23/36/15
f 24/36/16 20/35/16 19/34/16 21/33/16
f 23/32/17 17/31/17 20/30/17 24/29/17
f 24/28/18 21/27/18 22/26/18 23/25/18
o entity0_brush663
v 1408.000000 95.999855 -1904.000000
v 1280.000000 159.999863 -1904.000000
v 1280.000000 159.999802 -2624.000000
v 1408.000000 95.999802 -2624.000000
v 1408.000000 159.999863 -1904.000000
v 1408.000000 159.999802 -2624.000000
vn -0.4472 -0.8944 -0.0000
vn -0.0000 -0.0000 1.0000
vn -0.0000 1.0000 -0.0000
vn -0.0000 -0.0000 -1.0000
vn 1.0000 -0.0000 -0.0000
vt -59.500000 -50.000000
vt -59.500000 -46.000000
vt -82.000000 -46.000000
vt -82.000000 -50.000000
vt -5.000000 -50.000000
vt -5.000000 -46.000000
vt -3.000000 -50.000000
vt -5.000000 -88.000000
vt -5.000000 -65.500000
vt -3.000000 -65.500000
vt -3.000000 -88.000000
s 0
usemtl TECH01_1
f 25/37/19 26/38/19 27/39/19 28/40/19
f 29/41/20 26/42/20 25/43/20
f 30/40/21 27/39/21 26/38/21 29/37/21
f 28/43/22 27/42/22 30/41/22
f 30/44/23 29/45/23 25/46/23 28/47/23
o entity0_brush666
v 1024.000000 95.999802 -2624.000000
v 1024.000000 159.999817 -2496.000000
v 1024.000000 159.999802 -2624.000000
v 1408.000000 159.999817 -2496.000000
v 1408.000000 95.999802 -2624.000000
v 1408.000000 159.999802 -2624.000000
vn -1.0000 -0.0000 -0.0000
vn -0.0000 -0.8944 0.4472
vn -0.0000 1.0000 -0.0000
vn -0.0000 -0.0000 -1.0000
vn 1.0000 -0.0000 -0.0000
vt 82.000000 -9.000000
vt 78.000000 -11.000000
vt 82.000000 -11.000000
vt 44.000000 -84.000000
vt 32.000000 -84.000000
vt 32.000000 -88.000000
vt 44.000000 -88.000000
vt 44.000000 -9.000000
vt 32.000000 -9.000000
vt 32.000000 -11.000000
vt 44.000000 -11.000000
s 0
usemtl TECH01_1
f 31/48/24 32/49/24 33/50/24
f 34/51/25 32/52/25 31/53/25 35/54/25
f 36/54/26 33/53/26 32/52/26 34/51/26
f 35/55/27 31/56/27 33/57/27 36/58/27
f 34/49/28 35/48/28 36/50/28
o entity0_brush667
v 1024.000000 143.999817 -2512.000000
v 1024.000000 143.999847 -2016.000000
v 1024.000000 159.999847 -2016.000000
v 1024.000000 159.999817 -2512.000000
v 1296.000000 159.999847 -2016.000000
v 1296.000000 143.999847 -2016.000000
v 1296.000000 143.999817 -2512.000000
v 1296.000000 159.999817 -2512.000000
vn -1.0000 -0.0000 -0.0000
vn -0.0000 -0.0000 1.0000
vn -0.0000 -1.0000 -0.0000
vn -0.0000 1.0000 -0.0000
vn -0.0000 -0.0000 -1.0000
vn 1.0000 -0.0000 -0.0000
vt 78.500000 4.500000
vt 63.000000 4.500000
vt 63.000000 5.000000
vt 78.500000 5.000000
vt 40.500000 5.000000
vt 32.000000 5.000000
vt 32.000000 4.500000
vt 40.500000 4.500000
vt 40.500000 63.000000
vt 32.000000 63.000000
vt 32.000000 78.500000
vt 40.500000 78.500000
s 0
usemtl TECH01_6
f 37/59/29 38/60/29 39/61/29 40/62/29
f 41/63/30 39/64/30 38/65/30 42/66/30
f 42/67/31 38/68/31 37/69/31 43/70/31
f 44/70/32 40/69/32 39/68/32 41/67/32
f 43/66/33 37/65/33 40/64/33 44/63/33
f 44/62/34 41/61/34 42/60/34 43/59/34
